<svg width="726" height="521" viewBox="0 0 726 521" fill="none" xmlns="http://www.w3.org/2000/svg">
<path d="M147.996 172.413C170.916 265.776 171.489 363.561 152.5 425.413C121.338 526.913 12.5002 531.913 12.5 454.913C12.4998 377.913 50 347.718 154.5 289.913C208.774 259.89 267.5 249.413 283.996 172.413C285.996 183.913 302.796 208.113 337.996 212.913C327.5 277.871 337.996 326.413 408 302.371C480.364 277.519 599.996 -5.56928 516.996 13.4128C464 25.5329 464.329 229.246 484.996 326.413M597.996 171.413C578.829 192.579 528.996 232.613 482.996 231.413C525.663 284.079 630.6 371.913 713 289.913" stroke="black" stroke-width="25" stroke-linecap="round" stroke-linejoin="round"/>
<path d="M144.5 93.8691V98.3691" stroke="black" stroke-width="38" stroke-linecap="round" stroke-linejoin="round"/>
</svg>
